<svg data-v-0dd9719b="" version="1.0" xmlns="http://www.w3.org/2000/svg" xmlns:xlink="http://www.w3.org/1999/xlink" width="100%" height="100%" viewBox="0 0 340.000000 250.000000" preserveAspectRatio="xMidYMid meet" color-interpolation-filters="sRGB" style="margin: auto;"> <rect data-v-0dd9719b="" x="0" y="0" width="100%" height="100%" fill="#fff" fill-opacity="1" class="background"></rect> <rect data-v-0dd9719b="" x="0" y="0" width="100%" height="100%" fill="url(#watermark)" fill-opacity="1" class="watermarklayer"></rect> <g data-v-0dd9719b="" fill="#333" class="icon-text-wrapper icon-svg-group iconsvg" transform="translate(48.23871612548828,95)"><g class="iconsvg-imagesvg" transform="translate(0,0)"><g><rect fill="#333" fill-opacity="0" stroke-width="2" x="0" y="0" width="60" height="60" class="image-rect"></rect> <svg x="0" y="0" width="60" height="60" filtersec="colorsb3461372370" class="image-svg-svg primary" style="overflow: visible;"><svg xmlns="http://www.w3.org/2000/svg" viewBox="-0.005000509787350893 -0.0049985842779278755 100.00999450683594 100.00999450683594"><g fill-rule="evenodd"><path d="M61.73 0A38.28 38.28 0 0 1 100 38.27H61.73a19.14 19.14 0 1 1 0-38.27" fill="#0084dc"></path><path d="M100 61.73A38.28 38.28 0 0 1 61.73 100V61.73a19.14 19.14 0 1 1 38.27 0" fill="#fec106"></path><path d="M38.27 100A38.28 38.28 0 0 1 0 61.73h38.27a19.14 19.14 0 1 1 0 38.27" fill="#f2005d"></path><path d="M0 38.27A38.28 38.28 0 0 1 38.27 0v38.27a19.14 19.14 0 1 1-38.27 0" fill="#a8006d"></path></g></svg></svg> <!----></g></g> <g transform="translate(67.00000381469727,12.66269302368164)"><g data-gra="path-name" fill-rule="" class="tp-name iconsvg-namesvg"><g transform="scale(1)"><g><path d="M5.03-34.54L5.03-34.54 25.21-34.54Q26.69-34.54 26.84-34.49L26.84-34.49Q27.63-34.05 27.34-33.21L27.34-33.21Q27.29-33.06 27.04-32.81L27.04-32.81Q26.6-32.62 25.12-32.62L25.12-32.62 6.71-32.62Q5.53-32.62 5.03-32.42L5.03-32.42Q4.1-31.92 3.85-30.2L3.85-30.2 3.85-20.43Q3.85-19.19 5.03-19.19L5.03-19.19 24.23-19.19Q25.71-19.19 25.95-19.1L25.95-19.1Q27.34-18.31 25.95-17.32L25.95-17.32Q25.71-17.22 24.33-17.22L24.33-17.22 5.08-17.22Q3.85-17.22 3.85-16.04L3.85-16.04 3.85-3.7Q4.14-2.27 5.43-2.07L5.43-2.07 25.12-2.07Q26.6-2.07 26.69-2.02L26.69-2.02Q27.43-1.58 27.24-0.69L27.24-0.69Q26.99-0.25 26.69-0.2L26.69-0.2Q26.5-0.1 25.02-0.1L25.02-0.1 4.29-0.1Q2.27-0.25 1.88-2.42L1.88-2.42 1.88-31.33Q1.92-34 5.03-34.54ZM45.3-19L56.94-33.75Q57.78-34.84 58.47-34.69L58.47-34.69Q60.3-34 58.47-32.07L58.47-32.07Q52.06-24.18 45.69-16.28L45.69-16.28Q45.15-15.64 45.15-14.51L45.15-14.51 45.15-2.52Q45.15-1.04 45.1-0.84L45.1-0.84Q44.41 0.35 43.42-0.35L43.42-0.35Q43.27-0.54 43.22-0.64L43.22-0.64Q43.13-0.79 43.13-2.27L43.13-2.27 43.13-14.36Q43.13-15.54 42.73-16.04L42.73-16.04 30.44-31.83Q29.61-32.71 29.51-33.65L29.51-33.65Q29.85-34.88 30.79-34.59L30.79-34.59Q31.53-34.44 32.52-32.96L32.52-32.96 43.27-19.14Q44.31-17.81 45.3-19L45.3-19ZM64.54-34.54L64.54-34.54 84.72-34.54Q86.2-34.54 86.35-34.49L86.35-34.49Q87.14-34.05 86.84-33.21L86.84-33.21Q86.79-33.06 86.55-32.81L86.55-32.81Q86.1-32.62 84.62-32.62L84.62-32.62 66.22-32.62Q65.03-32.62 64.54-32.42L64.54-32.42Q63.6-31.92 63.36-30.2L63.36-30.2 63.36-20.43Q63.36-19.19 64.54-19.19L64.54-19.19 83.73-19.19Q85.21-19.19 85.46-19.1L85.46-19.1Q86.84-18.31 85.46-17.32L85.46-17.32Q85.21-17.22 83.83-17.22L83.83-17.22 64.59-17.22Q63.36-17.22 63.36-16.04L63.36-16.04 63.36-3.7Q63.65-2.27 64.93-2.07L64.93-2.07 84.62-2.07Q86.1-2.07 86.2-2.02L86.2-2.02Q86.94-1.58 86.74-0.69L86.74-0.69Q86.5-0.25 86.2-0.2L86.2-0.2Q86-0.1 84.52-0.1L84.52-0.1 63.8-0.1Q61.78-0.25 61.38-2.42L61.38-2.42 61.38-31.33Q61.43-34 64.54-34.54ZM102.63-34.29L102.63-34.29Q106.73-35.23 111.81-33.4L111.81-33.4Q116.1-31.83 118.77-27.38L118.77-27.38Q122.76-19.19 120.25-10.9L120.25-10.9Q118.67-4.74 113.04-1.78L113.04-1.78Q110.53-0.59 107.12-0.2L107.12-0.2Q103.17 0.2 98.88-1.58L98.88-1.58Q94.54-3.31 92.12-8.09L92.12-8.09Q89.46-14.26 90.39-20.58L90.39-20.58Q90.74-24.57 93.11-28.47L93.11-28.47Q94.29-30.39 96.71-32.07L96.71-32.07Q99.42-33.8 102.63-34.29ZM112.6-30.84L112.6-30.84Q106.43-33.95 100.51-31.68L100.51-31.68Q96.27-30.25 93.85-25.51L93.85-25.51Q92.37-22.11 92.17-17.86L92.17-17.86Q92.17-11.94 94.84-7.5L94.84-7.5Q96.22-5.48 98.49-4L98.49-4Q104.41-0.84 110.43-2.96L110.43-2.96Q112.75-3.75 114.38-5.13L114.38-5.13Q117.04-7.45 118.13-11L118.13-11Q119.51-15.69 119.06-19.29L119.06-19.29Q118.72-23.73 116.5-27.19L116.5-27.19Q114.77-29.75 112.6-30.84ZM123.75-34.44L123.75-34.44Q125.33-35.13 127.01-33.7L127.01-33.7Q136.73-18.85 146.4-3.9L146.4-3.9Q147.29-2.76 147.43-2.76L147.43-2.76Q147.73-2.81 147.83-3.31L147.83-3.31 147.83-32.47Q147.83-33.95 147.88-34.1L147.88-34.1Q148.17-34.64 148.62-34.59L148.62-34.59Q149.36-34.79 149.7-34L149.7-34Q149.8-33.7 149.8-32.27L149.8-32.27 149.8-1.68Q149.51 0.49 147.63-0.2L147.63-0.2Q146.64-0.49 145.61-1.63L145.61-1.63Q140.38-9.33 125.97-31.23L125.97-31.23Q125.67-31.88 125.18-31.78L125.18-31.78Q125.08-31.68 124.93-31.18L124.93-31.18Q124.93-30.94 124.84-30.69L124.84-30.69 124.84-2.42Q124.84-0.94 124.74-0.64L124.74-0.64Q124.29 0.05 123.45-0.2L123.45-0.2Q123.11-0.35 122.96-0.74L122.96-0.74Q122.86-0.99 122.86-2.47L122.86-2.47 122.86-33.11Q123.01-34.14 123.75-34.44ZM156.02-34.54L156.02-34.54 176.2-34.54Q177.68-34.54 177.83-34.49L177.83-34.49Q178.62-34.05 178.32-33.21L178.32-33.21Q178.27-33.06 178.03-32.81L178.03-32.81Q177.58-32.62 176.1-32.62L176.1-32.62 157.7-32.62Q156.51-32.62 156.02-32.42L156.02-32.42Q155.08-31.92 154.84-30.2L154.84-30.2 154.84-20.43Q154.84-19.19 156.02-19.19L156.02-19.19 175.21-19.19Q176.69-19.19 176.94-19.1L176.94-19.1Q178.32-18.31 176.94-17.32L176.94-17.32Q176.69-17.22 175.31-17.22L175.31-17.22 156.07-17.22Q154.84-17.22 154.84-16.04L154.84-16.04 154.84-3.7Q155.13-2.27 156.41-2.07L156.41-2.07 176.1-2.07Q177.58-2.07 177.68-2.02L177.68-2.02Q178.42-1.58 178.22-0.69L178.22-0.69Q177.98-0.25 177.68-0.2L177.68-0.2Q177.48-0.1 176-0.1L176-0.1 155.28-0.1Q153.26-0.25 152.86-2.42L152.86-2.42 152.86-31.33Q152.91-34 156.02-34.54Z" transform="translate(-1.8799999952316284, 34.70814514160156)"></path></g> <!----> <!----> <!----> <!----> <!----> <!----> <!----></g></g> <!----></g></g><defs v-gra="od"></defs></svg>